<svg id="图层_1" data-name="图层 1" xmlns="http://www.w3.org/2000/svg" xmlns:xlink="http://www.w3.org/1999/xlink" viewBox="0 0 350 22"><defs><style>.cls-1{fill:#fff;}.cls-2{fill:url(#未命名的渐变_4);}.cls-3{fill:#f2f2f2;fill-rule:evenodd;}.cls-4,.cls-5,.cls-6{font-size:11px;}.cls-4{fill:#8effe2;}.cls-4,.cls-5,.cls-6,.cls-7{font-family:UnifontMedium, Unifont;}.cls-5{fill:#f897ff;}.cls-6{fill:#6cff6c;}.cls-7{font-size:12px;fill:#efff7d;}</style><linearGradient id="未命名的渐变_4" x1="175" y1="22" x2="175" gradientUnits="userSpaceOnUse"><stop offset="0" stop-color="#272b33"/><stop offset="0.2" stop-color="#30343c"/><stop offset="0.54" stop-color="#4a4e56"/><stop offset="0.6" stop-color="#4f535b"/><stop offset="0.87" stop-color="#777b83"/><stop offset="0.99" stop-color="#81858d"/></linearGradient></defs><rect class="cls-1" width="350" height="22"/><rect class="cls-2" width="350" height="22"/><image width="400" height="400" transform="translate(328) scale(0.06)" xlink:href="D:%5CFDM_downloads%5C53437291.png"/><path class="cls-3" d="M11.28,0A11.28,11.28,0,0,0,7.71,22c.57.1.78-.24.78-.54s0-1.15,0-2.1c-2.83.52-3.56-.69-3.79-1.32a4.13,4.13,0,0,0-1.16-1.6c-.39-.21-1-.73,0-.74a2.22,2.22,0,0,1,1.73,1.15,2.41,2.41,0,0,0,3.29.93,2.38,2.38,0,0,1,.72-1.51C6.74,16,4.12,15,4.12,10.69a4.35,4.35,0,0,1,1.15-3,4.09,4.09,0,0,1,.12-3s.94-.3,3.1,1.15a10.65,10.65,0,0,1,5.64,0c2.15-1.46,3.1-1.15,3.1-1.15a4.07,4.07,0,0,1,.11,3,4.34,4.34,0,0,1,1.16,3c0,4.32-2.64,5.28-5.15,5.56a2.68,2.68,0,0,1,.76,2.09c0,1.51,0,2.72,0,3.1s.21.65.77.54A11.28,11.28,0,0,0,11.28,0Z"/><text class="cls-4" transform="translate(31.03 20.63)">249 contributions in the last year</text><text class="cls-5" transform="translate(31.03 9.64)">NappingSodion KJH-x</text><text class="cls-6" transform="translate(239.88 20.3)">13 Repositories</text><text class="cls-7" transform="translate(178.66 11)">1 follower · 1 following</text></svg>